<svg xmlns="http://www.w3.org/2000/svg" width="156" height="28" fill="none"><g clip-path="url(#a)"><path fill="#FF4D00" fill-rule="evenodd" d="M14.464 0c5.22 0 7.83 0 9.775 1.125A8.39 8.39 0 0 1 27.306 4.2c1.122 1.95 1.122 4.566 1.122 9.8 0 5.234 0 7.85-1.122 9.8a8.39 8.39 0 0 1-3.067 3.075C22.294 28 19.684 28 14.464 28c-5.22 0-7.83 0-9.775-1.125A8.39 8.39 0 0 1 1.622 23.8C.5 21.85.5 19.234.5 14c0-5.234 0-7.85 1.122-9.8A8.39 8.39 0 0 1 4.69 1.125C6.633 0 9.244 0 14.464 0Zm1.396 2.8C9.69 2.8 4.69 7.814 4.69 14c0 6.186 5 11.2 11.17 11.2S27.032 20.186 27.032 14c0-6.186-5.002-11.2-11.172-11.2Z" clip-rule="evenodd"/><path fill="#FF4D00" d="M25.636 14c0 3.866-3.126 7-6.982 7-3.856 0-6.982-3.134-6.982-7s3.126-7 6.982-7c3.856 0 6.982 3.134 6.982 7Z"/><path fill="#391300" d="M150.286 7.883c1.562 0 2.817.48 3.766 1.442.964.946 1.446 2.273 1.446 3.982v7.439h-3.214v-7.004c0-.992-.253-1.747-.758-2.266-.505-.534-1.194-.8-2.066-.8-.873 0-1.57.266-2.09.8-.505.519-.758 1.274-.758 2.266v7.004h-3.215v-7.004c0-.992-.252-1.747-.757-2.266-.505-.534-1.194-.8-2.067-.8-.887 0-1.592.266-2.112.8-.505.519-.758 1.274-.758 2.266v7.004h-3.215V8.066h3.215v1.533a4.298 4.298 0 0 1 1.585-1.258 5.062 5.062 0 0 1 2.158-.458c.995 0 1.883.213 2.663.64a4.34 4.34 0 0 1 1.814 1.786c.414-.733 1.011-1.32 1.791-1.762a5.21 5.21 0 0 1 2.572-.664Zm-18.166.18v12.68h-3.238V19.14c-.413.55-.956.984-1.63 1.305a5.068 5.068 0 0 1-2.158.457c-.995 0-1.876-.205-2.641-.617-.765-.428-1.37-1.046-1.814-1.854-.429-.824-.643-1.8-.643-2.93V8.063h3.215v6.98c0 1.007.252 1.785.757 2.335.506.534 1.195.8 2.067.8.888 0 1.585-.266 2.09-.8.505-.55.757-1.328.757-2.335v-6.98h3.238Zm-18.848 12.888c-1.041 0-1.975-.183-2.802-.55-.827-.38-1.484-.892-1.975-1.533a3.898 3.898 0 0 1-.78-2.128h3.237c.062.488.299.892.712 1.213.429.32.957.48 1.585.48.612 0 1.086-.122 1.423-.366.352-.244.528-.557.528-.938 0-.412-.214-.717-.643-.916-.413-.213-1.079-.442-1.997-.686-.949-.23-1.73-.466-2.342-.71a4.165 4.165 0 0 1-1.562-1.121c-.429-.504-.643-1.183-.643-2.037 0-.702.199-1.343.598-1.923.412-.58.995-1.037 1.744-1.373.766-.336 1.661-.504 2.687-.504 1.515 0 2.724.382 3.628 1.145.903.747 1.401 1.762 1.493 3.044h-3.077c-.046-.504-.261-.9-.643-1.19-.368-.306-.865-.458-1.493-.458-.582 0-1.033.107-1.355.32a1.028 1.028 0 0 0-.459.893c0 .427.214.755.643.984.429.214 1.095.435 1.998.664.918.229 1.676.465 2.273.71a3.86 3.86 0 0 1 1.538 1.144c.444.503.674 1.175.689 2.014 0 .732-.206 1.388-.62 1.968-.398.58-.979 1.038-1.745 1.373-.75.321-1.63.481-2.64.481ZM96.859 9.896c.413-.58.98-1.06 1.7-1.442.734-.396 1.568-.595 2.502-.595 1.087 0 2.066.267 2.939.801.888.534 1.584 1.297 2.09 2.29.52.976.781 2.113.781 3.41 0 1.296-.261 2.448-.781 3.456-.506.991-1.202 1.762-2.09 2.311-.873.55-1.852.824-2.939.824-.934 0-1.76-.19-2.48-.572a5.33 5.33 0 0 1-1.722-1.442v7.85h-3.215V8.066h3.215v1.831Zm6.728 4.463c0-.762-.161-1.418-.483-1.968a3.126 3.126 0 0 0-1.24-1.282 3.257 3.257 0 0 0-1.653-.434c-.582 0-1.132.152-1.653.457-.505.29-.918.717-1.24 1.282-.306.565-.459 1.228-.459 1.991 0 .763.153 1.427.46 1.992.32.564.734.999 1.24 1.304.52.29 1.07.435 1.652.435.598 0 1.149-.153 1.653-.458.521-.305.935-.74 1.24-1.304.322-.565.483-1.236.483-2.014ZM89.69 6.554c-.567 0-1.041-.175-1.424-.526a1.831 1.831 0 0 1-.551-1.35c0-.534.183-.977.551-1.328.383-.366.857-.55 1.424-.55.566 0 1.033.184 1.4.55.383.351.575.794.575 1.328s-.192.984-.574 1.35c-.368.35-.835.526-1.401.526Zm1.584 1.511v12.68H88.06V8.065h3.214ZM79.87 20.951c-1.225 0-2.327-.267-3.307-.8a6.025 6.025 0 0 1-2.32-2.313c-.55-.991-.825-2.136-.825-3.433 0-1.297.283-2.441.849-3.433a5.978 5.978 0 0 1 2.365-2.289c.995-.549 2.105-.824 3.33-.824 1.224 0 2.334.275 3.33.824a5.824 5.824 0 0 1 2.342 2.29c.581.99.872 2.135.872 3.432 0 1.297-.298 2.442-.895 3.433a6.093 6.093 0 0 1-2.389 2.312c-.995.534-2.112.801-3.352.801Zm0-2.792a3.36 3.36 0 0 0 1.63-.412c.52-.29.934-.717 1.24-1.282.306-.564.46-1.251.46-2.06 0-1.205-.322-2.128-.965-2.77-.628-.655-1.4-.983-2.319-.983s-1.692.328-2.32.984c-.612.64-.917 1.564-.917 2.77 0 1.205.298 2.135.895 2.792.612.64 1.377.96 2.296.96Zm-13.84 2.792c-1.224 0-2.326-.267-3.306-.8a6.02 6.02 0 0 1-2.32-2.313c-.55-.991-.826-2.136-.826-3.433 0-1.297.283-2.441.85-3.433a5.973 5.973 0 0 1 2.365-2.289c.995-.549 2.105-.824 3.33-.824 1.224 0 2.334.275 3.329.824a5.824 5.824 0 0 1 2.342 2.29c.582.99.872 2.135.872 3.432 0 1.297-.298 2.442-.895 3.433a6.095 6.095 0 0 1-2.388 2.312c-.995.534-2.113.801-3.353.801Zm0-2.792a3.36 3.36 0 0 0 1.63-.412 3.13 3.13 0 0 0 1.24-1.282c.307-.564.46-1.251.46-2.06 0-1.205-.322-2.128-.965-2.77-.627-.655-1.4-.983-2.319-.983-.918 0-1.691.328-2.319.984-.612.64-.918 1.564-.918 2.77 0 1.205.298 2.135.895 2.792.613.64 1.378.96 2.296.96Zm-13.84 2.792c-1.224 0-2.326-.267-3.306-.8a6.02 6.02 0 0 1-2.32-2.313c-.55-.991-.826-2.136-.826-3.433 0-1.297.284-2.441.85-3.433a5.973 5.973 0 0 1 2.365-2.289c.995-.549 2.105-.824 3.33-.824 1.224 0 2.334.275 3.329.824a5.819 5.819 0 0 1 2.342 2.29c.582.99.873 2.135.873 3.432 0 1.297-.299 2.442-.896 3.433a6.094 6.094 0 0 1-2.388 2.312c-.995.534-2.112.801-3.352.801Zm0-2.792a3.36 3.36 0 0 0 1.63-.412c.521-.29.935-.717 1.24-1.282.307-.564.46-1.251.46-2.06 0-1.205-.321-2.128-.964-2.77-.628-.655-1.401-.983-2.32-.983-.918 0-1.691.328-2.319.984-.612.64-.918 1.564-.918 2.77 0 1.205.298 2.135.895 2.792.613.64 1.378.96 2.297.96Zm-12.17.046h5.28v2.54h-8.495V4.77h3.214v13.435Z"/><path fill="#391300" d="M69.152 21.482c.259-.104.512-.223.76-.356l.005-.003a7.193 7.193 0 0 0 2.648-2.451v2.516a6.242 6.242 0 0 1-6.239 6.111h-.342a6.242 6.242 0 0 1-6.238-6.11h3.384a2.858 2.858 0 0 0 2.854 2.724h.343a2.858 2.858 0 0 0 2.825-2.431Z"/></g><defs><clipPath id="a"><path fill="#fff" d="M.5 0h155v28H.5z"/></clipPath></defs></svg>