<svg xmlns="http://www.w3.org/2000/svg" width="146" height="28" fill="none"><g clip-path="url(#a)"><path fill="#170E57" d="M140.486 9.094c1.502 0 2.71.463 3.622 1.388.928.912 1.392 2.19 1.392 3.836v7.163h-3.093v-6.745c0-.955-.242-1.682-.728-2.182-.486-.514-1.149-.771-1.988-.771s-1.51.257-2.01.771c-.486.5-.729 1.227-.729 2.182v6.745h-3.093v-6.745c0-.955-.243-1.682-.729-2.182-.485-.514-1.148-.771-1.987-.771-.855 0-1.532.257-2.033.771-.485.5-.728 1.227-.728 2.182v6.745h-3.093V9.271h3.093v1.476a4.127 4.127 0 0 1 1.524-1.212 4.87 4.87 0 0 1 2.076-.441c.957 0 1.811.205 2.563.617.75.397 1.332.97 1.744 1.72.398-.706.972-1.272 1.723-1.698a5.008 5.008 0 0 1 2.474-.64Zm-17.476.176v12.21h-3.114v-1.542a4.162 4.162 0 0 1-1.569 1.256 4.869 4.869 0 0 1-2.076.441c-.957 0-1.804-.198-2.54-.595a4.436 4.436 0 0 1-1.745-1.785c-.412-.794-.618-1.734-.618-2.822V9.27h3.092v6.722c0 .97.243 1.72.729 2.249.486.514 1.149.771 1.988.771.854 0 1.524-.257 2.009-.771.487-.53.73-1.279.73-2.249V9.27h3.114Zm-18.133 12.408c-1.001 0-1.9-.176-2.695-.529-.795-.367-1.428-.86-1.9-1.477a3.752 3.752 0 0 1-.75-2.05h3.114c.058.47.287.86.685 1.169.412.308.92.463 1.523.463.589 0 1.046-.118 1.37-.353.339-.235.508-.536.508-.904 0-.396-.206-.69-.618-.881-.398-.206-1.038-.427-1.922-.662-.913-.22-1.664-.448-2.253-.683a4 4 0 0 1-1.502-1.08c-.413-.485-.619-1.139-.619-1.962a3.2 3.2 0 0 1 .575-1.851c.397-.559.957-1 1.678-1.323.736-.323 1.598-.485 2.585-.485 1.458 0 2.621.368 3.49 1.102.868.72 1.347 1.698 1.436 2.932h-2.96c-.045-.485-.251-.867-.619-1.146-.353-.294-.832-.441-1.435-.441-.56 0-.994.103-1.304.309a.992.992 0 0 0-.442.86c0 .41.207.727.619.947.412.206 1.052.419 1.922.64.883.22 1.612.447 2.187.683a3.736 3.736 0 0 1 1.479 1.102c.427.485.648 1.131.663 1.94 0 .705-.199 1.336-.596 1.895-.384.558-.943 1-1.679 1.322-.722.309-1.569.463-2.54.463ZM89.092 11.032c.398-.558.943-1.021 1.635-1.389.707-.382 1.509-.573 2.407-.573 1.046 0 1.988.257 2.828.772.853.514 1.524 1.249 2.01 2.204.5.94.75 2.035.75 3.284 0 1.25-.25 2.359-.75 3.329-.486.955-1.156 1.697-2.01 2.226-.84.529-1.782.793-2.828.793-.898 0-1.693-.183-2.385-.55a5.128 5.128 0 0 1-1.657-1.39V27.3H86V9.269h3.092v1.763Zm6.472 4.298c0-.735-.154-1.366-.464-1.895a3.017 3.017 0 0 0-1.193-1.235 3.135 3.135 0 0 0-1.59-.418c-.56 0-1.09.146-1.59.44-.486.28-.884.691-1.193 1.235-.295.543-.442 1.183-.442 1.917 0 .735.147 1.374.442 1.918.309.544.707.962 1.193 1.256.5.28 1.03.42 1.59.42.574 0 1.105-.148 1.59-.442A3.17 3.17 0 0 0 95.1 17.27c.31-.544.464-1.19.464-1.94ZM82.193 7.814c-.545 0-1.002-.169-1.37-.507a1.765 1.765 0 0 1-.53-1.3c0-.515.176-.94.53-1.279.368-.352.825-.529 1.37-.529.545 0 .994.177 1.347.53.368.337.552.763.552 1.278 0 .514-.184.947-.552 1.3-.353.338-.802.507-1.347.507Zm1.524 1.455V21.48h-3.093V9.27h3.093ZM72.746 21.678c-1.178 0-2.238-.257-3.18-.771a5.793 5.793 0 0 1-2.232-2.226c-.53-.956-.795-2.058-.795-3.307s.272-2.35.817-3.306a5.749 5.749 0 0 1 2.275-2.204c.958-.53 2.025-.794 3.203-.794s2.246.265 3.203.794a5.602 5.602 0 0 1 2.253 2.204c.56.955.84 2.057.84 3.306 0 1.25-.288 2.351-.862 3.307a5.862 5.862 0 0 1-2.297 2.226c-.957.514-2.032.771-3.225.771Zm0-2.689a3.23 3.23 0 0 0 1.568-.397c.5-.279.898-.69 1.193-1.234.294-.544.442-1.205.442-1.984 0-1.16-.31-2.05-.928-2.667-.604-.632-1.347-.948-2.231-.948-.884 0-1.627.316-2.231.948-.589.617-.883 1.506-.883 2.667 0 1.161.287 2.057.861 2.69.59.617 1.325.925 2.209.925Zm-13.313 2.689c-1.178 0-2.238-.257-3.18-.771a5.793 5.793 0 0 1-2.231-2.226c-.53-.956-.795-2.058-.795-3.307s.272-2.35.817-3.306a5.749 5.749 0 0 1 2.275-2.204c.957-.53 2.025-.794 3.203-.794s2.245.265 3.203.794a5.6 5.6 0 0 1 2.253 2.204c.56.955.839 2.057.839 3.306 0 1.25-.287 2.351-.861 3.307a5.864 5.864 0 0 1-2.298 2.226c-.957.514-2.032.771-3.225.771Zm0-2.689a3.23 3.23 0 0 0 1.569-.397c.5-.279.898-.69 1.192-1.234.295-.544.442-1.205.442-1.984 0-1.16-.309-2.05-.928-2.667-.603-.632-1.347-.948-2.23-.948-.884 0-1.628.316-2.231.948-.59.617-.884 1.506-.884 2.667 0 1.161.287 2.057.862 2.69.588.617 1.325.925 2.208.925ZM46.12 21.678c-1.177 0-2.237-.257-3.18-.771a5.793 5.793 0 0 1-2.23-2.226c-.53-.956-.796-2.058-.796-3.307s.273-2.35.817-3.306a5.749 5.749 0 0 1 2.275-2.204c.958-.53 2.025-.794 3.203-.794s2.246.265 3.203.794a5.6 5.6 0 0 1 2.253 2.204c.56.955.84 2.057.84 3.306 0 1.25-.288 2.351-.862 3.307a5.864 5.864 0 0 1-2.297 2.226c-.957.514-2.032.771-3.225.771Zm0-2.689a3.23 3.23 0 0 0 1.57-.397c.5-.279.897-.69 1.192-1.234.294-.544.442-1.205.442-1.984 0-1.16-.31-2.05-.928-2.667-.604-.632-1.347-.948-2.231-.948-.883 0-1.627.316-2.23.948-.59.617-.884 1.506-.884 2.667 0 1.161.287 2.057.861 2.69.589.617 1.325.925 2.209.925Zm-11.707.043h5.08v2.447H31.32V6.094h3.093v12.938Z"/><path fill="#170E57" d="M54.043 23.122a5.885 5.885 0 0 0 5.578 4h.323c3.25 0 5.884-2.63 5.884-5.872v-.332h-3.19v.332a2.691 2.691 0 0 1-2.694 2.688h-.323a2.689 2.689 0 0 1-1.933-.816h-3.645Z"/><path fill="#06D1D4" d="m11.007 0 3.821 3.733-14.328 14v-7.466L11.007 0Z"/><path fill="#3628A0" d="M2.537 19.725 11.007 28l10.508-10.267v-7.466l-6.687-6.534-14.328 14 .003.003L14.828 3.734v10.734l-6.448 6.3v-6.674l-5.843 5.63Z"/></g><defs><clipPath id="a"><path fill="#fff" d="M.5 0h145v28H.5z"/></clipPath></defs></svg>