<svg xmlns="http://www.w3.org/2000/svg" width="167" height="28" fill="none"><g clip-path="url(#a)"><path fill="#1A1A1A" d="M146.191 22.488V8.55h3.646v2.48h.175c.29-.822.775-1.47 1.455-1.944.681-.474 1.49-.711 2.427-.711.954 0 1.763.241 2.426.723.673.474 1.12 1.118 1.345 1.933h.149c.282-.807.796-1.45 1.543-1.933.747-.482 1.626-.723 2.638-.723 1.294 0 2.348.411 3.161 1.234.821.823 1.231 1.99 1.231 3.504v9.375h-3.857v-8.602c0-.782-.207-1.363-.622-1.746-.406-.382-.917-.573-1.53-.573-.698 0-1.245.224-1.643.673-.39.44-.585 1.022-.585 1.745v8.503h-3.733v-8.702c0-.673-.195-1.21-.585-1.608-.39-.408-.9-.611-1.53-.611-.432 0-.818.108-1.158.324-.34.216-.61.515-.809.898-.199.373-.299.822-.299 1.346v8.353h-3.845Zm-5.485-5.921V8.551h3.846v13.938h-3.696v-2.53h-.15a4.246 4.246 0 0 1-1.555 1.97c-.722.498-1.605.743-2.65.735-.93 0-1.751-.208-2.464-.624-.706-.424-1.257-1.026-1.655-1.807-.39-.782-.585-1.717-.585-2.806V8.551h3.845v8.203c0 .815.219 1.463.66 1.945.439.474 1.024.707 1.754.698.464 0 .896-.103 1.294-.311.398-.216.722-.536.971-.96.257-.424.385-.944.385-1.559Zm-10.212-4.04-3.522.212c-.091-.44-.336-.82-.734-1.135-.398-.324-.933-.486-1.605-.486-.597 0-1.099.124-1.506.374-.398.25-.597.582-.597.997 0 .333.129.62.386.86.265.233.717.416 1.356.549l2.526.499c1.353.274 2.36.719 3.024 1.334.664.615.995 1.425.995 2.43 0 .923-.265 1.73-.796 2.42-.531.681-1.261 1.217-2.19 1.608-.929.382-1.995.573-3.198.573-1.842 0-3.31-.386-4.405-1.16-1.087-.772-1.722-1.82-1.904-3.14l3.77-.2c.125.565.407.993.846 1.284.441.29 1.004.436 1.693.436.672 0 1.215-.133 1.63-.399.423-.266.635-.602.635-1.01 0-.69-.597-1.155-1.792-1.396l-2.402-.499c-1.352-.274-2.36-.744-3.024-1.409-.663-.665-.995-1.516-.995-2.555 0-.898.245-1.67.734-2.32.489-.648 1.174-1.146 2.053-1.495.888-.35 1.925-.524 3.111-.524 1.759 0 3.14.374 4.144 1.122 1.012.74 1.601 1.75 1.767 3.03ZM104.352 27.7V8.55h3.783v2.356h.173a5.27 5.27 0 0 1 .748-1.16c.323-.39.746-.714 1.269-.972.523-.266 1.169-.399 1.941-.399a5.15 5.15 0 0 1 2.799.798c.855.524 1.54 1.317 2.054 2.381.514 1.064.771 2.394.771 3.99 0 1.546-.249 2.855-.746 3.927-.498 1.064-1.174 1.87-2.029 2.419-.846.548-1.8.822-2.862.822-.746 0-1.381-.124-1.904-.373a3.977 3.977 0 0 1-1.281-.936 5.384 5.384 0 0 1-.76-1.147h-.111V27.7h-3.845Zm6.682-8.055c.63 0 1.161-.174 1.593-.523.431-.35.759-.831.982-1.446.225-.624.337-1.338.337-2.145 0-.806-.112-1.512-.337-2.12-.215-.614-.539-1.096-.97-1.445-.432-.35-.967-.524-1.605-.524-.622 0-1.153.17-1.593.511-.431.333-.763.806-.996 1.421-.223.607-.336 1.326-.336 2.157 0 .823.117 1.542.349 2.157.232.615.564 1.097.996 1.446.439.341.966.511 1.58.511ZM98.869 22.49V8.553h3.845v13.939h-3.845Zm1.916-15.72a2.066 2.066 0 0 1-1.469-.574 1.832 1.832 0 0 1-.609-1.384c0-.54.203-.997.61-1.371a2.066 2.066 0 0 1 1.468-.574c.58 0 1.074.191 1.481.574.406.374.609.83.609 1.371 0 .54-.203 1.002-.609 1.384a2.085 2.085 0 0 1-1.481.573Zm-9.829 15.992c-1.402 0-2.617-.299-3.646-.897a6.177 6.177 0 0 1-2.364-2.519c-.548-1.08-.821-2.335-.821-3.765 0-1.446.273-2.705.82-3.777a6.076 6.076 0 0 1 2.365-2.519c1.029-.607 2.244-.91 3.646-.91 1.41 0 2.626.303 3.646.91a5.969 5.969 0 0 1 2.364 2.519c.556 1.072.835 2.33.835 3.777 0 1.43-.279 2.685-.835 3.765a6.066 6.066 0 0 1-2.364 2.519c-1.02.598-2.235.897-3.646.897Zm.025-3.017c.64 0 1.174-.178 1.605-.536.432-.366.755-.864.97-1.496.225-.632.337-1.35.337-2.157 0-.814-.112-1.533-.336-2.157-.216-.623-.54-1.113-.97-1.47-.432-.358-.967-.537-1.606-.537-.647 0-1.19.179-1.63.536-.431.358-.76.848-.983 1.471-.216.624-.324 1.343-.324 2.157 0 .806.108 1.525.324 2.157.224.632.552 1.13.983 1.496.44.358.983.536 1.63.536Zm-14.706 8.254c-1.875 0-3.343-.374-4.405-1.122-1.062-.74-1.71-1.663-1.942-2.768l3.56-.474c.108.283.277.544.51.785.232.241.543.433.933.574.39.15.867.224 1.431.224.838 0 1.53-.203 2.078-.61.548-.4.821-1.077.821-2.033V20.02H79.1c-.167.382-.42.747-.76 1.097-.34.349-.775.631-1.306.847-.531.216-1.166.325-1.904.325-1.045 0-1.995-.242-2.85-.724-.846-.49-1.526-1.238-2.04-2.244-.507-1.005-.76-2.277-.76-3.815 0-1.587.257-2.909.772-3.964.523-1.056 1.211-1.845 2.065-2.37a5.22 5.22 0 0 1 2.813-.797c.78 0 1.431.133 1.953.399.531.258.963.582 1.295.972.332.391.58.778.746 1.16h.15V8.55h3.795v14.088c0 1.18-.29 2.169-.87 2.967-.581.798-1.382 1.396-2.403 1.795-1.02.4-2.194.599-3.521.599Zm.074-8.615c.93 0 1.647-.345 2.154-1.035.513-.69.77-1.646.77-2.868 0-.814-.115-1.52-.348-2.12-.223-.606-.551-1.075-.983-1.408-.431-.34-.962-.511-1.593-.511-.63 0-1.165.175-1.605.524-.431.34-.759.814-.983 1.42-.224.608-.336 1.306-.336 2.095 0 .798.112 1.492.336 2.082.224.582.552 1.031.983 1.347.44.316.975.474 1.605.474ZM62.14 22.762c-1.402 0-2.617-.299-3.646-.897a6.174 6.174 0 0 1-2.364-2.519c-.548-1.08-.821-2.335-.821-3.765 0-1.446.273-2.705.82-3.777a6.073 6.073 0 0 1 2.365-2.519c1.029-.607 2.244-.91 3.646-.91 1.41 0 2.626.303 3.646.91a5.97 5.97 0 0 1 2.365 2.519c.555 1.072.834 2.33.834 3.777 0 1.43-.279 2.685-.834 3.765a6.068 6.068 0 0 1-2.365 2.519c-1.02.598-2.236.897-3.646.897Zm.025-3.017c.639 0 1.174-.178 1.605-.536.432-.366.755-.864.971-1.496.224-.632.336-1.35.336-2.157 0-.814-.112-1.533-.336-2.157-.216-.623-.54-1.113-.97-1.47-.432-.358-.967-.537-1.606-.537-.647 0-1.19.179-1.63.536-.431.358-.76.848-.983 1.471-.216.624-.324 1.343-.324 2.157 0 .806.108 1.525.324 2.157.224.632.552 1.13.983 1.496.44.358.983.536 1.63.536ZM42.941 22.49V3.914h3.908V19.25H54.8v3.241H42.941Z"/><path fill="#FF0A0A" d="M25.49 27.317c4.384-.09 7.91-3.683 7.91-8.1a8.11 8.11 0 0 0-2.366-5.728L17.578 0v8.384c0 1.403.556 2.747 1.545 3.739l3.151 3.16.009.008 5.285 5.299a.441.441 0 0 1 0 .623.439.439 0 0 1-.622 0l-1.821-1.827H8.274l-1.821 1.827a.439.439 0 0 1-.622 0 .441.441 0 0 1 0-.623l5.285-5.299.009-.008 3.151-3.16a5.294 5.294 0 0 0 1.545-3.739V0L2.366 13.489A8.11 8.11 0 0 0 0 19.217c0 4.417 3.526 8.01 7.91 8.1h17.58Z"/></g><defs><clipPath id="a"><path fill="#fff" d="M0 0h167v28H0z"/></clipPath></defs></svg>