<svg xmlns="http://www.w3.org/2000/svg" width="155" height="28" fill="none"><g clip-path="url(#a)"><path fill="#0004E8" fill-rule="evenodd" d="M0 9.767v10.419h3.243a2.585 2.585 0 0 1 1.834.763 2.607 2.607 0 0 1 .76 1.842v3.256h7.782l9.728-9.768V5.86h-3.242a2.586 2.586 0 0 1-1.835-.762 2.606 2.606 0 0 1-.76-1.842V0H9.729L0 9.767Zm11.025 9.768h-4.54v-7.163l5.837-5.86h4.54v7.162l-5.837 5.86Z" clip-rule="evenodd"/><path fill="#000150" d="M149.53 7.973c1.638 0 2.955.508 3.951 1.523 1.011 1 1.517 2.403 1.517 4.209v7.86h-3.372v-7.4c0-1.049-.265-1.847-.795-2.395-.53-.564-1.253-.847-2.168-.847-.915 0-1.646.283-2.192.847-.53.548-.795 1.346-.795 2.394v7.401h-3.372v-7.4c0-1.049-.266-1.847-.795-2.395-.53-.564-1.253-.847-2.168-.847-.932 0-1.67.283-2.216.847-.53.548-.796 1.346-.796 2.394v7.401h-3.372V8.166h3.372v1.62a4.517 4.517 0 0 1 1.663-1.33 5.28 5.28 0 0 1 2.264-.483c1.044 0 1.975.225 2.794.677a4.571 4.571 0 0 1 1.903 1.886c.434-.774 1.06-1.394 1.879-1.862a5.434 5.434 0 0 1 2.698-.701Zm-19.054.195v13.4h-3.396v-1.694c-.433.58-1.004 1.04-1.71 1.379a5.29 5.29 0 0 1-2.265.483c-1.044 0-1.967-.217-2.77-.652-.803-.452-1.437-1.105-1.903-1.96-.45-.87-.674-1.902-.674-3.095V8.168h3.372v7.377c0 1.064.265 1.886.795 2.467.53.564 1.253.846 2.168.846.932 0 1.662-.282 2.192-.846.53-.58.795-1.403.795-2.467V8.168h3.396Zm-19.775 13.616c-1.092 0-2.072-.194-2.939-.58-.867-.404-1.558-.944-2.072-1.621a4.13 4.13 0 0 1-.819-2.25h3.396c.065.517.314.944.748 1.282.449.339 1.003.508 1.661.508.643 0 1.141-.129 1.494-.387.369-.258.554-.588.554-.991 0-.436-.225-.758-.674-.968-.434-.226-1.133-.467-2.096-.725-.996-.242-1.815-.492-2.457-.75a4.366 4.366 0 0 1-1.638-1.185c-.45-.532-.675-1.25-.675-2.153 0-.742.209-1.419.627-2.031.433-.613 1.043-1.097 1.83-1.452.804-.354 1.743-.532 2.819-.532 1.59 0 2.858.403 3.806 1.21.947.79 1.469 1.862 1.565 3.216h-3.227c-.048-.532-.273-.951-.675-1.257-.385-.323-.907-.484-1.565-.484-.611 0-1.085.113-1.422.339-.321.225-.482.54-.482.943 0 .451.225.798.675 1.04.45.226 1.148.46 2.096.701.963.242 1.758.492 2.384.75a4.08 4.08 0 0 1 1.615 1.21c.465.531.706 1.24.722 2.128 0 .774-.217 1.467-.651 2.08-.417.612-1.027 1.096-1.83 1.45-.787.34-1.711.509-2.77.509ZM93.482 10.102c.434-.613 1.028-1.12 1.783-1.524.77-.42 1.646-.629 2.625-.629 1.14 0 2.168.282 3.084.847.931.564 1.661 1.37 2.192 2.418.546 1.032.818 2.234.818 3.604s-.272 2.588-.818 3.652c-.531 1.048-1.261 1.863-2.192 2.443-.916.58-1.944.87-3.084.87-.98 0-1.847-.2-2.601-.604a5.599 5.599 0 0 1-1.807-1.524v8.296h-3.373V8.167h3.373v1.935Zm7.058 4.716c0-.806-.169-1.5-.506-2.08-.321-.596-.755-1.048-1.301-1.354a3.403 3.403 0 0 0-1.734-.46c-.61 0-1.188.161-1.734.484-.53.306-.964.758-1.301 1.354-.321.597-.482 1.298-.482 2.104 0 .807.16 1.508.482 2.105.337.596.77 1.056 1.3 1.378a3.49 3.49 0 0 0 1.735.46 3.27 3.27 0 0 0 1.734-.484 3.47 3.47 0 0 0 1.301-1.378c.337-.597.506-1.306.506-2.129ZM85.958 6.572c-.594 0-1.091-.185-1.493-.556a1.942 1.942 0 0 1-.578-1.427c0-.565.192-1.032.578-1.403.402-.387.9-.58 1.493-.58.595 0 1.085.193 1.47.58.401.37.602.838.602 1.403 0 .564-.2 1.04-.602 1.427-.385.37-.875.556-1.47.556Zm1.662 1.596v13.4h-3.372v-13.4h3.372ZM75.656 21.784c-1.285 0-2.441-.282-3.469-.847a6.342 6.342 0 0 1-2.433-2.443c-.578-1.048-.867-2.257-.867-3.627 0-1.371.297-2.58.89-3.628a6.29 6.29 0 0 1 2.482-2.42c1.044-.58 2.208-.87 3.493-.87 1.285 0 2.449.29 3.493.871a6.126 6.126 0 0 1 2.457 2.419c.61 1.048.916 2.257.916 3.627 0 1.371-.314 2.58-.94 3.628a6.411 6.411 0 0 1-2.505 2.443c-1.044.565-2.217.847-3.517.847Zm0-2.95c.61 0 1.18-.146 1.71-.436.546-.307.98-.758 1.3-1.355.322-.596.483-1.322.483-2.176 0-1.274-.338-2.25-1.012-2.927-.659-.693-1.47-1.04-2.433-1.04-.964 0-1.774.347-2.433 1.04-.642.677-.963 1.653-.963 2.927 0 1.273.312 2.257.939 2.95.642.677 1.445 1.016 2.409 1.016Zm-14.516 2.95c-1.285 0-2.441-.282-3.469-.847a6.337 6.337 0 0 1-2.433-2.443c-.578-1.048-.867-2.257-.867-3.627 0-1.371.297-2.58.891-3.628a6.287 6.287 0 0 1 2.481-2.42c1.044-.58 2.209-.87 3.493-.87 1.285 0 2.45.29 3.493.871a6.125 6.125 0 0 1 2.457 2.419c.61 1.048.916 2.257.916 3.627 0 1.371-.314 2.58-.94 3.628a6.41 6.41 0 0 1-2.505 2.443c-1.044.565-2.216.847-3.517.847Zm0-2.95c.61 0 1.18-.146 1.71-.436.546-.307.98-.758 1.301-1.355.321-.596.482-1.322.482-2.176 0-1.274-.337-2.25-1.012-2.927-.658-.693-1.47-1.04-2.433-1.04-.963 0-1.774.347-2.433 1.04-.642.677-.963 1.653-.963 2.927 0 1.273.313 2.257.94 2.95.642.677 1.444 1.016 2.408 1.016Zm-14.52 2.95c-1.284 0-2.44-.282-3.468-.847a6.338 6.338 0 0 1-2.433-2.443c-.578-1.048-.867-2.257-.867-3.627 0-1.371.297-2.58.89-3.628a6.288 6.288 0 0 1 2.482-2.42c1.044-.58 2.208-.87 3.493-.87 1.285 0 2.449.29 3.493.871a6.125 6.125 0 0 1 2.457 2.419c.61 1.048.915 2.257.915 3.627 0 1.371-.313 2.58-.94 3.628a6.413 6.413 0 0 1-2.505 2.443c-1.043.565-2.216.847-3.517.847Zm0-2.95c.61 0 1.18-.146 1.71-.436.547-.307.98-.758 1.302-1.355.32-.596.481-1.322.481-2.176 0-1.274-.337-2.25-1.011-2.927-.659-.693-1.47-1.04-2.433-1.04-.964 0-1.775.347-2.433 1.04-.643.677-.964 1.653-.964 2.927 0 1.273.313 2.257.94 2.95.642.677 1.445 1.016 2.408 1.016Zm-12.767.047h5.54v2.685H30.48V4.684h3.373V18.88Z"/><path fill="#000150" d="M55.258 23.368c.854 2.55 3.255 4.388 6.083 4.388h.352c3.544 0 6.417-2.884 6.417-6.443v-.364h-3.479v.364c0 1.63-1.315 2.95-2.938 2.95h-.352a2.924 2.924 0 0 1-2.108-.895h-3.975Z"/></g><defs><clipPath id="a"><path fill="#fff" d="M0 0h155v28H0z"/></clipPath></defs></svg>