<svg xmlns="http://www.w3.org/2000/svg" width="156" height="28" fill="none"><g clip-path="url(#a)"><path fill="#00DC33" fill-rule="evenodd" d="M27.396.656a2.368 2.368 0 0 1 3.241-.029l.087.084.294.31c2.98 3.213 4.09 6.959 3.805 10.617-.289 3.71-1.996 7.208-4.377 9.972-2.38 2.762-5.558 4.938-8.993 5.882-3.478.956-7.282.652-10.584-1.686-2.8-1.983-3.867-5.187-3.94-8.3a42.524 42.524 0 0 1-4.96-2.901l-.458-.313-.098-.07a2.32 2.32 0 0 1-.492-3.177 2.366 2.366 0 0 1 3.173-.651l.102.066.418.284c1.039.7 2.03 1.307 2.974 1.83.608-2.14 1.616-4.195 2.944-5.89 1.99-2.538 4.973-4.568 8.627-4.265 3.292.273 5.724 1.976 6.979 4.379 1.215 2.327 1.233 5.126.171 7.533-1.083 2.454-3.282 4.498-6.445 5.34-2.276.607-4.943.565-7.951-.247v.001a26.261 26.261 0 0 1-3.765-1.35c-.294-.13-.55.07 0 .414 1.549 1.103 3.731 2.027 4.363 2.337.298.484.668.881 1.092 1.182 1.953 1.382 4.236 1.635 6.593.987 2.4-.66 4.805-2.25 6.671-4.416 1.864-2.164 3.066-4.757 3.264-7.3.187-2.4-.503-4.867-2.584-7.107l-.206-.216-.082-.09a2.32 2.32 0 0 1 .137-3.21ZM18.767 7.07c-1.51-.125-3.103.672-4.519 2.478-1.078 1.376-1.894 3.163-2.31 5.003 2.963 1.015 5.171 1.022 6.706.614 1.776-.473 2.84-1.544 3.354-2.706.533-1.208.478-2.525-.039-3.515-.477-.913-1.438-1.728-3.192-1.874Z" clip-rule="evenodd"/><path fill="#00390E" d="M97.085 9.52c-1.311 0-2.153-.987-1.97-2.31.182-1.325 1.296-2.312 2.607-2.312 1.311 0 2.153.987 1.97 2.311-.182 1.324-1.296 2.311-2.607 2.311Zm-3.577 12.977 1.639-11.892h3.576l-1.639 11.892h-3.576Z"/><path fill="#00390E" fill-rule="evenodd" d="m99.793 16.672-1.504 10.905h3.576l.88-6.38c.593 1.06 1.709 1.613 3.115 1.613 2.671 0 5.995-1.973 6.565-6.114.528-3.827-1.739-6.403-5.483-6.403-3.6 0-6.599 2.383-7.15 6.38Zm9.028-.12c-.235 1.709-1.495 2.888-3.116 2.888s-2.556-1.18-2.32-2.888c.236-1.71 1.495-2.889 3.116-2.889 1.622 0 2.556 1.18 2.32 2.889Z" clip-rule="evenodd"/><path fill="#00390E" d="M117.189 22.81c-3.028 0-4.757-1.636-4.49-3.923h3.528c-.062.625.348.939 1.325.939 1.097 0 1.508-.386 1.578-.891.102-.742-.631-.854-1.602-1.003h-.004l-.207-.032c-1.588-.241-4.201-.65-3.807-3.515.332-2.407 2.448-4.092 5.38-4.092 2.933 0 4.51 1.71 4.286 3.851h-3.481c-.02-.553-.453-.866-1.169-.866-.881 0-1.302.457-1.369.939-.094.69.672.808 1.675.964l.145.023c1.659.24 4.195.698 3.807 3.514-.339 2.456-2.567 4.092-5.595 4.092Zm20.202-7.004-.922 6.691h3.576l.922-6.691c.22-1.59 1.059-2.143 2.132-2.143 1.049 0 1.736.554 1.516 2.143l-.922 6.691h3.576l.922-6.691c.22-1.59 1.059-2.143 2.108-2.143 1.073 0 1.76.554 1.541 2.143l-.923 6.691h3.576l.923-6.691c.527-3.828-1.434-5.513-4.295-5.513-1.693 0-3.165.65-4.22 1.902-.709-1.252-2.026-1.902-3.696-1.902-2.861 0-5.286 1.685-5.814 5.513Zm-13.286.962c-.554 4.02 1.504 6.042 4.985 6.042 3.481 0 6.099-2.046 6.65-6.042l.849-6.163h-3.576l-.849 6.163c-.259 1.877-1.275 2.672-2.61 2.672s-2.131-.795-1.873-2.672l.85-6.163h-3.576l-.85 6.163Z"/><path fill="#00390E" fill-rule="evenodd" d="M80.225 16.552c-.498 3.61 1.76 6.258 5.48 6.258 3.719 0 6.706-2.647 7.204-6.258.498-3.611-1.76-6.259-5.48-6.259-3.719 0-6.707 2.648-7.204 6.259Zm9.06 0c-.236 1.709-1.496 2.888-3.116 2.888-1.622 0-2.556-1.18-2.32-2.888.235-1.71 1.495-2.889 3.116-2.889s2.555 1.18 2.32 2.889Zm-20.449 5.14c-1.445-1.104-2.161-2.944-1.859-5.14.498-3.611 3.486-6.259 7.205-6.259s5.977 2.648 5.48 6.259c-.482 3.488-3.286 6.077-6.828 6.25.834.478 2.046.865 2.937 1.15.297.095.559.178.759.25.808.204 1.325.965 1.2 1.872-.147 1.064-1.12 1.927-2.174 1.927h-5.723c-2.107 0-3.577-1.725-3.284-3.853h6.103c-1.394-.544-2.868-1.633-3.816-2.456Zm4.085-2.252c1.621 0 2.88-1.18 3.116-2.888.236-1.71-.698-2.889-2.32-2.889-1.62 0-2.88 1.18-3.116 2.889-.235 1.709.699 2.888 2.32 2.888Zm-19.188-2.888c-.498 3.61 1.76 6.258 5.479 6.258 3.719 0 6.707-2.647 7.204-6.258.498-3.611-1.76-6.259-5.479-6.259-3.72 0-6.707 2.648-7.204 6.259Zm9.06 0c-.236 1.709-1.495 2.888-3.117 2.888-1.621 0-2.555-1.18-2.32-2.888.236-1.71 1.495-2.889 3.116-2.889 1.622 0 2.556 1.18 2.32 2.889Z" clip-rule="evenodd"/><path fill="#00390E" d="m41.18 22.497 2.17-15.743h3.862L45.54 18.886h7.367l-.498 3.611H41.18Z"/></g><defs><clipPath id="a"><path fill="#fff" d="M.5 0h155v28H.5z"/></clipPath></defs></svg>