<svg xmlns="http://www.w3.org/2000/svg" width="80" height="28" fill="none"><path fill="#001B10" d="M33.107 16.144c0 .406-.111.868-.334 1.406-.222.528-.566 1.066-1.02 1.613a10.626 10.626 0 0 1-1.716 1.595c-.686.52-1.483.963-2.401 1.35.148.405.426.735.816.98.398.256.918.378 1.567.378.649 0 2.448.49 2.29-.434-.064-.387 1.596-.792 3.07-1.425.12-.047.223 0 .297.133.074.141.046.245-.074.32-1.197.708-2.254 1.208-3.19 1.5-.928.293-1.735.435-2.402.435-1.095 0-1.883-.283-2.365-.85-.482-.566-.724-1.255-.724-2.066 0-.812.158-1.67.464-2.444a7.278 7.278 0 0 1 1.196-2.029 6.333 6.333 0 0 1 1.568-1.387c.556-.34 1.103-.51 1.623-.51.519 0 .779.133 1.001.397.223.264.334.613.334 1.038Zm-5.666 4.926c0 .226.009.396.037.49a9.56 9.56 0 0 0 2.253-1.255c.631-.481 1.16-.962 1.586-1.462.427-.491.742-.982.946-1.463.213-.481.315-.896.315-1.255 0-.604-.278-.906-.816-.906-.538 0-.927.16-1.437.472-.51.311-.983.736-1.419 1.274a6.811 6.811 0 0 0-1.066 1.859 6.05 6.05 0 0 0-.409 2.236l.01.01Z"/><path fill="#001B10" d="M30.018 24.302c-1.178 0-2.05-.32-2.596-.962-.529-.623-.798-1.387-.798-2.274a6.9 6.9 0 0 1 .492-2.567 8.138 8.138 0 0 1 1.242-2.113A6.737 6.737 0 0 1 30 14.932c.602-.367 1.205-.556 1.78-.556s.956.17 1.234.51c.269.32.408.735.408 1.245 0 .51-.12.962-.362 1.529-.232.556-.593 1.122-1.076 1.689a11.221 11.221 0 0 1-1.762 1.641c-.621.472-1.354.897-2.17 1.255.13.217.316.406.566.567.343.217.816.33 1.4.33s.38.028.622.056c.39.048 1.196.151 1.354-.018.018-.02.009-.076 0-.114-.084-.519.602-.773 1.854-1.226.436-.16.937-.34 1.4-.538.279-.113.539 0 .687.273.148.284.083.576-.186.736-1.214.718-2.3 1.237-3.255 1.53-.955.301-1.799.452-2.494.452l.018.01Zm2.597-1.255v.114c.65-.227 1.372-.557 2.151-.982-.24.095-.482.18-.695.255-.575.208-1.27.462-1.456.613Zm-.844-7.501c-.39 0-.816.141-1.28.424a5.537 5.537 0 0 0-1.345 1.208 6.56 6.56 0 0 0-1.01 1.774c-.26.67-.39 1.378-.39 2.123v.038a9.286 9.286 0 0 0 1.809-1.047c.612-.463 1.131-.934 1.539-1.416.399-.471.705-.934.9-1.387.194-.434.287-.82.287-1.123 0-.5-.195-.604-.51-.604v.01Z"/><path fill="#001B10" d="M35.823 21.22c.148-.047.26.01.334.189.074.179.037.292-.111.34a1 1 0 0 0-.501.433c-.14.217-.241.434-.316.66a1.687 1.687 0 0 0-.092.605c.01.179.093.264.24.264.15 0 .363-.151.483-.453.12-.302.158-.632.111-.981-.027-.18.01-.293.112-.34a.412.412 0 0 1 .297-.038c.445.104.908.17 1.381.208.473.038.946.056 1.42.056 1.567 0 2.902-.198 4.024-.604.148-.047.25 0 .297.17.046.16 0 .284-.149.359-1.122.406-2.513.604-4.173.604-1.66 0-.964-.01-1.419-.038a17.42 17.42 0 0 1-1.196-.113c.028.358-.065.726-.26 1.123-.194.387-.51.585-.927.585-.417 0-.575-.142-.668-.415a1.706 1.706 0 0 1-.055-.925c.064-.34.194-.68.408-1 .213-.33.463-.557.76-.68v-.01Z"/><path fill="#001B10" d="M35.38 24.57c-.64 0-.872-.386-.956-.622-.12-.33-.139-.698-.065-1.095a3.01 3.01 0 0 1 .455-1.113c.24-.378.547-.651.9-.802h.018c.232-.085.547-.038.714.349a.862.862 0 0 1 .065.32c.408.095.844.152 1.289.19.464.037.927.056 1.391.056 1.52 0 2.838-.198 3.923-.585a.525.525 0 0 1 .427.019.576.576 0 0 1 .268.349c.093.311-.018.585-.306.727l-.037.018c-1.14.416-2.587.623-4.275.623-1.688 0-.983-.01-1.437-.038a11.373 11.373 0 0 1-.881-.075c-.037.293-.13.604-.288.906-.25.49-.668.755-1.206.755v.019Zm.315-2.019c-.074.132-.13.265-.176.406-.056.16-.084.311-.084.434a.534.534 0 0 0 .14-.236 1.65 1.65 0 0 0 .11-.604h.01Z"/><path fill="#001B10" d="M43.426 17.323c.046-.151.158-.218.334-.19.176.03.232.142.185.34l-.11.453a72.354 72.354 0 0 1 5.832-.981 65.277 65.277 0 0 1 6.205-.49c.194 0 .296.094.296.282 0 .19-.102.274-.296.246a80.19 80.19 0 0 0-6.242.528 93.783 93.783 0 0 0-5.944.982c-.047.358-.102.717-.149 1.085a8.647 8.647 0 0 0-.074 1.085c0 .358.047.943.13 1.406.083.453.241.868.464 1.236.222.368.52.68.871.925.362.254.826.415 1.4.49.223.029.316.123.279.302-.037.18-.158.255-.352.227-.65-.076-1.187-.264-1.623-.547a3.17 3.17 0 0 1-1.02-1.067 4.105 4.105 0 0 1-.52-1.406 8.094 8.094 0 0 1-.148-1.576c0-.537.065-1.34.185-2.047-.667.15-1.344.302-2.03.453-.687.15-1.382.32-2.106.49-.195.076-.324.01-.37-.188-.047-.198.027-.312.222-.34.77-.18 1.511-.35 2.235-.51.723-.16 1.437-.32 2.16-.471.047-.123.084-.246.093-.359.01-.113.047-.236.093-.358Z"/><path fill="#001B10" d="M46.33 25.558h-.102c-.686-.085-1.28-.284-1.752-.595a3.69 3.69 0 0 1-1.123-1.16 4.467 4.467 0 0 1-.556-1.5 8.694 8.694 0 0 1-.158-1.633c0-.548.037-1.086.12-1.642-.528.123-1.056.236-1.594.358-.659.142-1.354.312-2.087.491a.548.548 0 0 1-.473-.019c-.092-.047-.222-.16-.278-.396-.056-.236 0-.396.065-.49a.56.56 0 0 1 .417-.237l2.207-.51c.668-.15 1.327-.301 1.994-.443l.028-.132a1.58 1.58 0 0 1 .111-.434c.102-.292.343-.434.668-.387a.515.515 0 0 1 .38.227.623.623 0 0 1 .065.471c1.79-.358 3.59-.66 5.38-.896a66.384 66.384 0 0 1 6.231-.49c.38 0 .612.235.612.594 0 .358-.093.358-.176.434-.111.104-.26.142-.436.123-2.18.103-4.266.273-6.195.528a86.565 86.565 0 0 0-5.712.944c-.038.283-.075.566-.121.858-.046.35-.074.699-.074 1.038 0 .34.046.916.12 1.34.084.415.223.793.427 1.133.204.33.464.613.788.84.316.226.742.367 1.261.443a.639.639 0 0 1 .464.236.54.54 0 0 1 .074.434c-.065.302-.287.481-.584.481l.01-.01Zm9.543-8.833.01.01.278-.113-.26.066s-.019.018-.019.028l-.009.01Z"/><path fill="#001B10" d="M50.28 17.247c.046-.15.157-.217.315-.207.157.009.232.103.204.283l-1.002 5.69c.427-.529.798-.906 1.14-1.123.335-.217.669-.321.984-.321.315 0 .408.104.538.302a5.1 5.1 0 0 1 .352.604c.12.226.288.472.501.717.213.255.5.377.872.377.695 0 1.678-.16 2.94-.49a18.74 18.74 0 0 0 3.839-1.482c.12-.047.222 0 .297.132.074.142.046.246-.075.321-.667.359-1.344.66-2.03.906-.687.255-1.336.462-1.957.623-.622.16-1.197.292-1.716.377-.52.085-.955.132-1.308.132-.575 0-.983-.15-1.233-.453a4.314 4.314 0 0 1-.594-.943c-.176-.406-.324-.604-.445-.604-.296 0-.649.18-1.048.528-.398.359-.871.934-1.419 1.746-.046.104-.139.132-.278.094-.139-.037-.194-.122-.167-.245l1.27-6.973.02.01Z"/><path fill="#001B10" d="M49.29 24.794c-.055 0-.11 0-.176-.028-.287-.085-.445-.321-.39-.604l1.28-7.011a.597.597 0 0 1 .631-.425.52.52 0 0 1 .38.189c.066.085.13.226.103.443l-.826 4.652c.167-.16.334-.283.492-.387.38-.245.77-.368 1.15-.368.38 0 .593.151.788.434.148.218.269.434.37.642.112.198.27.425.465.66.148.18.361.274.64.274.667 0 1.632-.16 2.865-.48a18.674 18.674 0 0 0 3.775-1.454c.296-.123.556-.019.704.264.158.283.084.576-.185.736-.696.368-1.391.68-2.087.934-.686.255-1.354.472-1.984.633-.622.16-1.206.292-1.744.386a8.115 8.115 0 0 1-1.354.142c-.667 0-1.159-.189-1.465-.566a4.531 4.531 0 0 1-.64-1.02 1.767 1.767 0 0 0-.232-.424c-.157.019-.408.123-.788.453-.371.33-.835.896-1.354 1.67a.476.476 0 0 1-.436.255h.019Z"/><path fill="#001B10" d="M63.554 20.35c.148 0 .223.084.223.264 0 .179-.075.264-.223.264a4.236 4.236 0 0 0-1.484.283 1.642 1.642 0 0 0-.538.32c-.139.123-.204.255-.204.378 0 .198.084.35.26.434.176.085.362.16.556.208.121.028.177.104.168.245-.01.142-.084.208-.205.208-.426.047-.63.16-.63.34 0 .273.621.415 1.864.415 1.242 0 1.103-.057 1.808-.17a23.871 23.871 0 0 0 2.161-.453 20.928 20.928 0 0 0 2.087-.66c.658-.255 1.196-.53 1.623-.831.12-.076.231-.047.333.075.103.123.084.255-.037.378-.426.302-.983.585-1.678.85a22.524 22.524 0 0 1-4.414 1.17c-.733.112-1.364.169-1.883.169-.52 0-1.299-.066-1.734-.208-.436-.141-.65-.386-.65-.736 0-.349.065-.235.186-.34.12-.103.25-.179.37-.226-.444-.122-.667-.415-.667-.868s.084-.396.26-.585a2.51 2.51 0 0 1 .649-.49c.26-.142.556-.246.872-.321.324-.076.63-.114.927-.114Z"/><path fill="#001B10" d="M63.323 24.566c-.751 0-1.363-.075-1.827-.226-.714-.227-.862-.69-.862-1.038 0-.35.046-.35.26-.547-.242-.217-.371-.52-.371-.897s.11-.547.343-.802c.194-.217.445-.396.732-.557.288-.15.603-.264.946-.349a4.15 4.15 0 0 1 1.002-.122c.324 0 .528.226.528.575 0 .35-.204.576-.528.576-.325 0-.464.028-.705.066a4.43 4.43 0 0 0-.677.188c-.186.076-.334.16-.445.265-.074.075-.102.122-.102.15 0 .095.028.123.093.161.148.075.315.142.5.189.26.056.427.283.4.575-.029.293-.214.482-.492.491-.075 0-.13.019-.177.028.204.047.603.104 1.382.104.78 0 1.067-.056 1.762-.17.696-.113 1.41-.264 2.133-.453.724-.188 1.41-.405 2.05-.65.63-.246 1.15-.51 1.548-.803.279-.17.557-.113.752.132.194.255.176.557-.056.793l-.037.038c-.445.32-1.03.613-1.744.887-.704.264-1.446.51-2.207.707-.76.208-1.52.368-2.263.482-.742.113-1.39.17-1.929.17l-.009.037Z"/><path fill="#001B10" d="M71.037 22.06c-.102-.047-.12-.15-.055-.302.065-.15.157-.198.278-.15.426.197.88.509 1.382.924.5.415.89.85 1.196 1.312.798-.434 1.697-.83 2.699-1.199a754.64 754.64 0 0 0 2.81-1.038c.176-.047.287 0 .334.132.046.142.009.246-.112.321-.844.33-1.78.699-2.791 1.104-1.02.406-1.91.784-2.68 1.142a1.591 1.591 0 0 1-.334 1.69c-.297.31-.705.47-1.234.47-.528 0-.37-.075-.519-.226a.735.735 0 0 1-.222-.528c0-.198.139-.557.426-.83.288-.283.677-.557 1.178-.83-.25-.378-.603-.756-1.057-1.124a7.47 7.47 0 0 0-1.29-.849l-.009-.019Zm2.643 2.803c0-.151-.009-.264-.037-.34a6.787 6.787 0 0 0-.992.623c-.232.189-.352.368-.352.547 0 .18.074.227.222.227.371 0 .659-.104.853-.321.195-.217.297-.463.297-.736h.01Z"/><path fill="#001B10" d="M72.532 26.767a1.01 1.01 0 0 1-.742-.32 1.062 1.062 0 0 1-.315-.746c0-.274.176-.717.52-1.057.24-.236.556-.472.936-.708a5.826 5.826 0 0 0-.797-.783 8.137 8.137 0 0 0-1.234-.821c-.185-.094-.352-.33-.204-.698.13-.312.39-.434.677-.321.464.217.946.547 1.456.981.436.368.798.746 1.095 1.151a20.342 20.342 0 0 1 2.503-1.085c1.002-.368 1.939-.717 2.81-1.038.418-.122.64.085.724.321a.568.568 0 0 1-.241.698l-.047.029c-.844.33-1.771.698-2.791 1.094a58.28 58.28 0 0 0-2.42 1.02 1.87 1.87 0 0 1-.482 1.727c-.353.377-.845.565-1.447.565v-.009Zm.826-1.727a5.783 5.783 0 0 0-.51.35.799.799 0 0 0-.204.216c.232-.019.398-.094.52-.217a.733.733 0 0 0 .194-.349ZM30.53 2.752C27.46-.843 22.61-.343 18.566 1.035c-4.943 1.689-9.57 4.567-13.03 8.568-2.884 3.33-6.13 8.219-5.443 12.89.844 5.793 7.196 5.803 11.685 5.312 6.093-.67 12.195-2.793 17.37-6.133.575-.378.046-1.312-.538-.935-3.877 2.5-8.235 4.237-12.705 5.266-2.42.556-4.887.896-7.373.896-2.55 0-5.527-.236-6.844-2.83-2.04-4.02 1.094-9.097 3.431-12.249 2.977-4 7.067-6.982 11.583-8.917 4.1-1.755 9.691-3.34 13.067.604.455.528 1.206-.245.751-.764l.01.01Z"/></svg>